<svg id="logo" xmlns="http://www.w3.org/2000/svg" viewBox="0 0 52.01 40.6"><defs><style>.cls-1{fill:#00df9a;}</style></defs><g id="svgg"><path id="path0" class="cls-1" d="M5.17,0C1,.66-1.16,4.56.64,8.21c1,2.1,2.69,3,5.51,3.08.88,0,1.61,0,1.61.05s-.13.3-.29.64a20.29,20.29,0,0,0,0,16.56l.33.73a8.15,8.15,0,0,1-1,0A5.66,5.66,0,0,0,4.92,40.4l.63.2H26.34c17,0,20.87,0,21.21-.12a5.67,5.67,0,0,0,3.17-9.11c-1.19-1.49-2.61-2.07-5.09-2.07-.76,0-1.37,0-1.37,0s.13-.32.29-.68a20.33,20.33,0,0,0,0-16.61c-.16-.34-.28-.63-.28-.64l1.23-.06C52.18,11.05,53.43,2,47,.19L46.38,0H25.88C14.61,0,5.29,0,5.17,0M6.58,1.68a4.08,4.08,0,1,1-5,3.94,4.08,4.08,0,0,1,5-3.94m21,0A18.76,18.76,0,0,1,42.76,28.72c-.33.65.31.59-5.82.56l-5.36,0,.63-.45c6.94-5,5.18-15.91-3-18.55-1.54-.5-1.22-.48-10.76-.52l-8.76,0,.41-.54A5.61,5.61,0,0,0,9.92,2l-.34-.4h8.48c5.21,0,8.87,0,9.49.09m18.81,0a4.09,4.09,0,0,1,1.47,7.4c-.84.56-1.35.67-3,.67H43.36l-.4-.6a20.74,20.74,0,0,0-8-7l-1.12-.57h6c4.07,0,6.16,0,6.46.1m-26,9.72-.72.54a10.56,10.56,0,0,0,4.52,18.78c.54.12,1.69.15,9.39.19l8.77.05-.38.46a5.64,5.64,0,0,0,.2,7.35l.3.32L33.3,39c-10,0-9.66,0-11.79-.53A18.76,18.76,0,0,1,9.06,12.29l.47-1H15c3,0,5.43,0,5.39.07m6.35,0c10,.89,11.23,15,1.57,17.58-8.4,2.24-14.76-7.76-9.18-14.42a9.08,9.08,0,0,1,6.68-3.23,9.25,9.25,0,0,1,.93.07M9.05,31.49a20.43,20.43,0,0,0,7.86,7l1.19.6h-6c-6.68,0-6.65,0-7.61-.53a4.08,4.08,0,0,1-.27-7,4.46,4.46,0,0,1,3-.65H8.65l.4.6M47.43,31a4.08,4.08,0,1,1-5.17,3.91A4.08,4.08,0,0,1,47.43,31"/></g></svg>